<svg width="1000" height="1000" viewBox="0 0 1000 1000" fill="none" xmlns="http://www.w3.org/2000/svg">
<circle cx="500" cy="500" r="500" fill="#212121"/>
<path d="M329.6 803V666.2H264V603.8H329.6V231.8H492.8C564.267 231.8 618.133 242.467 654.4 263.8C691.2 284.6 709.6 321.133 709.6 373.4C709.6 407 700.267 435 681.6 457.4C662.933 479.267 636 493.4 600.8 499.8V503.8C624.8 507.533 646.4 514.467 665.6 524.6C685.333 534.733 700.8 549.133 712 567.8C723.2 586.467 728.8 610.733 728.8 640.6C728.8 692.333 710.933 732.333 675.2 760.6C640 788.867 591.733 803 530.4 803H329.6ZM507.2 475C556.267 475 589.867 467.267 608 451.8C626.133 435.8 635.2 412.333 635.2 381.4C635.2 349.933 624 327.533 601.6 314.2C579.733 300.333 544.533 293.4 496 293.4H401.6V475H507.2ZM516.8 742.2C567.467 742.2 602.667 732.333 622.4 712.6C642.133 692.867 652 667 652 635C652 605.133 641.6 581.133 620.8 563C600.533 544.333 564 535 511.2 535H401.6V603.8H520V666.2H401.6V742.2H516.8Z" fill="#77C277"/>
</svg>
